<mxfile host="app.diagrams.net" modified="2024-07-16T07:00:09.427Z" agent="Mozilla/5.0 (Windows NT 10.0; Win64; x64) AppleWebKit/537.36 (KHTML, like Gecko) Chrome/126.0.0.0 Safari/537.36 Edg/126.0.0.0" etag="TqkRYFEUnzyRWqG6CgEn" version="24.6.5" type="device">
  <diagram id="C5RBs43oDa-KdzZeNtuy" name="Page-1">
    <mxGraphModel dx="955" dy="706" grid="1" gridSize="10" guides="1" tooltips="1" connect="1" arrows="1" fold="1" page="1" pageScale="1" pageWidth="827" pageHeight="1169" math="0" shadow="0">
      <root>
        <mxCell id="WIyWlLk6GJQsqaUBKTNV-0" />
        <mxCell id="WIyWlLk6GJQsqaUBKTNV-1" parent="WIyWlLk6GJQsqaUBKTNV-0" />
        <mxCell id="zkfFHV4jXpPFQw0GAbJ--0" value="Comic book small card" style="swimlane;fontStyle=2;align=center;verticalAlign=top;childLayout=stackLayout;horizontal=1;startSize=26;horizontalStack=0;resizeParent=1;resizeLast=0;collapsible=1;marginBottom=0;rounded=0;shadow=0;strokeWidth=2;swimlaneLine=1;fillColor=#fff2cc;strokeColor=#d6b656;swimlaneHead=1;gradientColor=none;swimlaneFillColor=none;" parent="WIyWlLk6GJQsqaUBKTNV-1" vertex="1">
          <mxGeometry x="50" y="120" width="220" height="248" as="geometry">
            <mxRectangle x="50" y="120" width="160" height="26" as="alternateBounds" />
          </mxGeometry>
        </mxCell>
        <mxCell id="zkfFHV4jXpPFQw0GAbJ--1" value="comic book ID" style="text;align=left;verticalAlign=top;spacingLeft=4;spacingRight=4;overflow=hidden;rotatable=0;points=[[0,0.5],[1,0.5]];portConstraint=eastwest;fillColor=#fff2cc;strokeColor=none;" parent="zkfFHV4jXpPFQw0GAbJ--0" vertex="1">
          <mxGeometry y="26" width="220" height="26" as="geometry" />
        </mxCell>
        <mxCell id="zkfFHV4jXpPFQw0GAbJ--2" value="series name" style="text;align=left;verticalAlign=top;spacingLeft=4;spacingRight=4;overflow=hidden;rotatable=1;points=[[0,0.5],[1,0.5]];portConstraint=eastwest;rounded=0;shadow=0;html=0;fillColor=#fff2cc;strokeColor=none;imageAspect=1;noLabel=0;allowArrows=1;container=0;editable=1;movable=1;resizable=1;deletable=1;locked=0;connectable=1;" parent="zkfFHV4jXpPFQw0GAbJ--0" vertex="1">
          <mxGeometry y="52" width="220" height="26" as="geometry" />
        </mxCell>
        <mxCell id="zkfFHV4jXpPFQw0GAbJ--3" value="date of publication" style="text;align=left;verticalAlign=top;spacingLeft=4;spacingRight=4;overflow=hidden;rotatable=0;points=[[0,0.5],[1,0.5]];portConstraint=eastwest;rounded=0;shadow=0;html=0;fillColor=#fff2cc;strokeColor=none;" parent="zkfFHV4jXpPFQw0GAbJ--0" vertex="1">
          <mxGeometry y="78" width="220" height="26" as="geometry" />
        </mxCell>
        <mxCell id="rS_IYxCSZImI4G8X3djC-2" value="issue number" style="text;align=left;verticalAlign=top;spacingLeft=4;spacingRight=4;overflow=hidden;rotatable=0;points=[[0,0.5],[1,0.5]];portConstraint=eastwest;rounded=0;shadow=0;html=0;fillColor=#fff2cc;strokeColor=none;" vertex="1" parent="zkfFHV4jXpPFQw0GAbJ--0">
          <mxGeometry y="104" width="220" height="26" as="geometry" />
        </mxCell>
        <mxCell id="rS_IYxCSZImI4G8X3djC-3" value="cover title" style="text;align=left;verticalAlign=top;spacingLeft=4;spacingRight=4;overflow=hidden;rotatable=0;points=[[0,0.5],[1,0.5]];portConstraint=eastwest;rounded=0;shadow=0;html=0;fillColor=#fff2cc;strokeColor=none;" vertex="1" parent="zkfFHV4jXpPFQw0GAbJ--0">
          <mxGeometry y="130" width="220" height="26" as="geometry" />
        </mxCell>
        <mxCell id="rS_IYxCSZImI4G8X3djC-4" value="price" style="text;align=left;verticalAlign=top;spacingLeft=4;spacingRight=4;overflow=hidden;rotatable=0;points=[[0,0.5],[1,0.5]];portConstraint=eastwest;rounded=0;shadow=0;html=0;fillColor=#fff2cc;strokeColor=none;" vertex="1" parent="zkfFHV4jXpPFQw0GAbJ--0">
          <mxGeometry y="156" width="220" height="26" as="geometry" />
        </mxCell>
        <mxCell id="rS_IYxCSZImI4G8X3djC-5" value="cover folder" style="text;align=left;verticalAlign=top;spacingLeft=4;spacingRight=4;overflow=hidden;rotatable=0;points=[[0,0.5],[1,0.5]];portConstraint=eastwest;rounded=0;shadow=0;html=0;fillColor=#fff2cc;strokeColor=none;glass=0;" vertex="1" parent="zkfFHV4jXpPFQw0GAbJ--0">
          <mxGeometry y="182" width="220" height="26" as="geometry" />
        </mxCell>
        <mxCell id="zkfFHV4jXpPFQw0GAbJ--4" value="" style="line;html=1;strokeWidth=1;align=left;verticalAlign=middle;spacingTop=-1;spacingLeft=3;spacingRight=3;rotatable=0;labelPosition=right;points=[];portConstraint=eastwest;" parent="zkfFHV4jXpPFQw0GAbJ--0" vertex="1">
          <mxGeometry y="208" width="220" as="geometry" />
        </mxCell>
        <mxCell id="zkfFHV4jXpPFQw0GAbJ--5" value="make element" style="text;align=left;verticalAlign=middle;spacingLeft=4;spacingRight=4;overflow=hidden;rotatable=0;points=[[0,0.5],[1,0.5]];portConstraint=eastwest;fillColor=#fff2cc;strokeColor=#d6b656;strokeWidth=1;" parent="zkfFHV4jXpPFQw0GAbJ--0" vertex="1">
          <mxGeometry y="208" width="220" height="40" as="geometry" />
        </mxCell>
        <mxCell id="rS_IYxCSZImI4G8X3djC-9" value="Comic book card" style="swimlane;fontStyle=2;align=center;verticalAlign=top;childLayout=stackLayout;horizontal=1;startSize=26;horizontalStack=0;resizeParent=1;resizeLast=0;collapsible=1;marginBottom=0;rounded=0;shadow=0;strokeWidth=2;fillColor=#fff2cc;strokeColor=#d6b656;" vertex="1" parent="WIyWlLk6GJQsqaUBKTNV-1">
          <mxGeometry x="530" y="120" width="220" height="404" as="geometry">
            <mxRectangle x="230" y="140" width="160" height="26" as="alternateBounds" />
          </mxGeometry>
        </mxCell>
        <mxCell id="rS_IYxCSZImI4G8X3djC-10" value="publisher name" style="text;align=left;verticalAlign=top;spacingLeft=4;spacingRight=4;overflow=hidden;rotatable=0;points=[[0,0.5],[1,0.5]];portConstraint=eastwest;fillColor=#fff2cc;strokeColor=none;" vertex="1" parent="rS_IYxCSZImI4G8X3djC-9">
          <mxGeometry y="26" width="220" height="26" as="geometry" />
        </mxCell>
        <mxCell id="rS_IYxCSZImI4G8X3djC-11" value="series name" style="text;align=left;verticalAlign=top;spacingLeft=4;spacingRight=4;overflow=hidden;rotatable=0;points=[[0,0.5],[1,0.5]];portConstraint=eastwest;rounded=0;shadow=0;html=0;fillColor=#fff2cc;strokeColor=none;" vertex="1" parent="rS_IYxCSZImI4G8X3djC-9">
          <mxGeometry y="52" width="220" height="26" as="geometry" />
        </mxCell>
        <mxCell id="rS_IYxCSZImI4G8X3djC-12" value="date of publication" style="text;align=left;verticalAlign=top;spacingLeft=4;spacingRight=4;overflow=hidden;rotatable=0;points=[[0,0.5],[1,0.5]];portConstraint=eastwest;rounded=0;shadow=0;html=0;fillColor=#fff2cc;strokeColor=none;" vertex="1" parent="rS_IYxCSZImI4G8X3djC-9">
          <mxGeometry y="78" width="220" height="26" as="geometry" />
        </mxCell>
        <mxCell id="rS_IYxCSZImI4G8X3djC-13" value="issue number" style="text;align=left;verticalAlign=top;spacingLeft=4;spacingRight=4;overflow=hidden;rotatable=0;points=[[0,0.5],[1,0.5]];portConstraint=eastwest;rounded=0;shadow=0;html=0;fillColor=#fff2cc;strokeColor=none;" vertex="1" parent="rS_IYxCSZImI4G8X3djC-9">
          <mxGeometry y="104" width="220" height="26" as="geometry" />
        </mxCell>
        <mxCell id="rS_IYxCSZImI4G8X3djC-14" value="cover title" style="text;align=left;verticalAlign=top;spacingLeft=4;spacingRight=4;overflow=hidden;rotatable=0;points=[[0,0.5],[1,0.5]];portConstraint=eastwest;rounded=0;shadow=0;html=0;fillColor=#fff2cc;strokeColor=none;" vertex="1" parent="rS_IYxCSZImI4G8X3djC-9">
          <mxGeometry y="130" width="220" height="26" as="geometry" />
        </mxCell>
        <mxCell id="rS_IYxCSZImI4G8X3djC-15" value="number of pages" style="text;align=left;verticalAlign=top;spacingLeft=4;spacingRight=4;overflow=hidden;rotatable=0;points=[[0,0.5],[1,0.5]];portConstraint=eastwest;rounded=0;shadow=0;html=0;fillColor=#fff2cc;strokeColor=none;" vertex="1" parent="rS_IYxCSZImI4G8X3djC-9">
          <mxGeometry y="156" width="220" height="26" as="geometry" />
        </mxCell>
        <mxCell id="rS_IYxCSZImI4G8X3djC-16" value="price" style="text;align=left;verticalAlign=top;spacingLeft=4;spacingRight=4;overflow=hidden;rotatable=0;points=[[0,0.5],[1,0.5]];portConstraint=eastwest;rounded=0;shadow=0;html=0;fillColor=#fff2cc;strokeColor=none;" vertex="1" parent="rS_IYxCSZImI4G8X3djC-9">
          <mxGeometry y="182" width="220" height="26" as="geometry" />
        </mxCell>
        <mxCell id="rS_IYxCSZImI4G8X3djC-19" value="description" style="text;align=left;verticalAlign=top;spacingLeft=4;spacingRight=4;overflow=hidden;rotatable=0;points=[[0,0.5],[1,0.5]];portConstraint=eastwest;rounded=0;shadow=0;html=0;fillColor=#fff2cc;strokeColor=none;" vertex="1" parent="rS_IYxCSZImI4G8X3djC-9">
          <mxGeometry y="208" width="220" height="26" as="geometry" />
        </mxCell>
        <mxCell id="rS_IYxCSZImI4G8X3djC-20" value="cover folder" style="text;align=left;verticalAlign=top;spacingLeft=4;spacingRight=4;overflow=hidden;rotatable=0;points=[[0,0.5],[1,0.5]];portConstraint=eastwest;rounded=0;shadow=0;html=0;fillColor=#fff2cc;strokeColor=none;" vertex="1" parent="rS_IYxCSZImI4G8X3djC-9">
          <mxGeometry y="234" width="220" height="26" as="geometry" />
        </mxCell>
        <mxCell id="rS_IYxCSZImI4G8X3djC-21" value="writer first name" style="text;align=left;verticalAlign=top;spacingLeft=4;spacingRight=4;overflow=hidden;rotatable=0;points=[[0,0.5],[1,0.5]];portConstraint=eastwest;rounded=0;shadow=0;html=0;fillColor=#fff2cc;strokeColor=none;" vertex="1" parent="rS_IYxCSZImI4G8X3djC-9">
          <mxGeometry y="260" width="220" height="26" as="geometry" />
        </mxCell>
        <mxCell id="rS_IYxCSZImI4G8X3djC-22" value="writer last name" style="text;align=left;verticalAlign=top;spacingLeft=4;spacingRight=4;overflow=hidden;rotatable=0;points=[[0,0.5],[1,0.5]];portConstraint=eastwest;rounded=0;shadow=0;html=0;fillColor=#fff2cc;strokeColor=none;" vertex="1" parent="rS_IYxCSZImI4G8X3djC-9">
          <mxGeometry y="286" width="220" height="26" as="geometry" />
        </mxCell>
        <mxCell id="rS_IYxCSZImI4G8X3djC-23" value="artist first name" style="text;align=left;verticalAlign=top;spacingLeft=4;spacingRight=4;overflow=hidden;rotatable=0;points=[[0,0.5],[1,0.5]];portConstraint=eastwest;rounded=0;shadow=0;html=0;fillColor=#fff2cc;strokeColor=none;" vertex="1" parent="rS_IYxCSZImI4G8X3djC-9">
          <mxGeometry y="312" width="220" height="26" as="geometry" />
        </mxCell>
        <mxCell id="rS_IYxCSZImI4G8X3djC-24" value="artist last name" style="text;align=left;verticalAlign=top;spacingLeft=4;spacingRight=4;overflow=hidden;rotatable=0;points=[[0,0.5],[1,0.5]];portConstraint=eastwest;rounded=0;shadow=0;html=0;fillColor=#fff2cc;strokeColor=none;" vertex="1" parent="rS_IYxCSZImI4G8X3djC-9">
          <mxGeometry y="338" width="220" height="26" as="geometry" />
        </mxCell>
        <mxCell id="rS_IYxCSZImI4G8X3djC-17" value="" style="line;html=1;strokeWidth=1;align=left;verticalAlign=middle;spacingTop=-1;spacingLeft=3;spacingRight=3;rotatable=0;labelPosition=right;points=[];portConstraint=eastwest;" vertex="1" parent="rS_IYxCSZImI4G8X3djC-9">
          <mxGeometry y="364" width="220" as="geometry" />
        </mxCell>
        <mxCell id="rS_IYxCSZImI4G8X3djC-18" value="make element" style="text;align=left;verticalAlign=middle;spacingLeft=4;spacingRight=4;overflow=hidden;rotatable=0;points=[[0,0.5],[1,0.5]];portConstraint=eastwest;fillColor=#fff2cc;strokeColor=#d6b656;" vertex="1" parent="rS_IYxCSZImI4G8X3djC-9">
          <mxGeometry y="364" width="220" height="40" as="geometry" />
        </mxCell>
        <mxCell id="rS_IYxCSZImI4G8X3djC-38" value="Best seller small card" style="swimlane;fontStyle=2;align=center;verticalAlign=top;childLayout=stackLayout;horizontal=1;startSize=26;horizontalStack=0;resizeParent=1;resizeLast=0;collapsible=1;marginBottom=0;rounded=0;shadow=0;strokeWidth=2;strokeColor=#d6b656;swimlaneFillColor=none;fontFamily=Helvetica;fontSize=12;fontColor=default;fillColor=#fff2cc;gradientColor=none;" vertex="1" parent="WIyWlLk6GJQsqaUBKTNV-1">
          <mxGeometry x="290" y="120" width="220" height="276" as="geometry">
            <mxRectangle x="230" y="140" width="160" height="26" as="alternateBounds" />
          </mxGeometry>
        </mxCell>
        <mxCell id="rS_IYxCSZImI4G8X3djC-39" value="publisher name" style="text;align=left;verticalAlign=top;spacingLeft=4;spacingRight=4;overflow=hidden;rotatable=0;points=[[0,0.5],[1,0.5]];portConstraint=eastwest;fontFamily=Helvetica;fontSize=12;fontStyle=2;resizable=1;fillColor=#fff2cc;strokeColor=none;fontColor=default;" vertex="1" parent="rS_IYxCSZImI4G8X3djC-38">
          <mxGeometry y="26" width="220" height="26" as="geometry" />
        </mxCell>
        <mxCell id="rS_IYxCSZImI4G8X3djC-48" value="series name" style="text;align=left;verticalAlign=top;spacingLeft=4;spacingRight=4;overflow=hidden;rotatable=0;points=[[0,0.5],[1,0.5]];portConstraint=eastwest;fontFamily=Helvetica;fontSize=12;fontStyle=2;resizable=1;fillColor=#fff2cc;strokeColor=none;fontColor=default;" vertex="1" parent="rS_IYxCSZImI4G8X3djC-38">
          <mxGeometry y="52" width="220" height="26" as="geometry" />
        </mxCell>
        <mxCell id="rS_IYxCSZImI4G8X3djC-40" value="comic book ID" style="text;align=left;verticalAlign=top;spacingLeft=4;spacingRight=4;overflow=hidden;rotatable=0;points=[[0,0.5],[1,0.5]];portConstraint=eastwest;rounded=0;shadow=0;html=0;fontFamily=Helvetica;fontSize=12;fontStyle=2;resizable=1;fillColor=#fff2cc;strokeColor=none;fontColor=default;" vertex="1" parent="rS_IYxCSZImI4G8X3djC-38">
          <mxGeometry y="78" width="220" height="26" as="geometry" />
        </mxCell>
        <mxCell id="rS_IYxCSZImI4G8X3djC-41" value="date of publication" style="text;align=left;verticalAlign=top;spacingLeft=4;spacingRight=4;overflow=hidden;rotatable=0;points=[[0,0.5],[1,0.5]];portConstraint=eastwest;rounded=0;shadow=0;html=0;fontFamily=Helvetica;fontSize=12;fontStyle=2;resizable=1;fillColor=#fff2cc;strokeColor=none;fontColor=default;" vertex="1" parent="rS_IYxCSZImI4G8X3djC-38">
          <mxGeometry y="104" width="220" height="26" as="geometry" />
        </mxCell>
        <mxCell id="rS_IYxCSZImI4G8X3djC-42" value="issue number" style="text;align=left;verticalAlign=top;spacingLeft=4;spacingRight=4;overflow=hidden;rotatable=0;points=[[0,0.5],[1,0.5]];portConstraint=eastwest;rounded=0;shadow=0;html=0;fontFamily=Helvetica;fontSize=12;fontStyle=2;resizable=1;fillColor=#fff2cc;strokeColor=none;fontColor=default;" vertex="1" parent="rS_IYxCSZImI4G8X3djC-38">
          <mxGeometry y="130" width="220" height="26" as="geometry" />
        </mxCell>
        <mxCell id="rS_IYxCSZImI4G8X3djC-43" value="cover title" style="text;align=left;verticalAlign=top;spacingLeft=4;spacingRight=4;overflow=hidden;rotatable=0;points=[[0,0.5],[1,0.5]];portConstraint=eastwest;rounded=0;shadow=0;html=0;fontFamily=Helvetica;fontSize=12;fontStyle=2;resizable=1;fillColor=#fff2cc;strokeColor=none;fontColor=default;" vertex="1" parent="rS_IYxCSZImI4G8X3djC-38">
          <mxGeometry y="156" width="220" height="26" as="geometry" />
        </mxCell>
        <mxCell id="rS_IYxCSZImI4G8X3djC-44" value="price" style="text;align=left;verticalAlign=top;spacingLeft=4;spacingRight=4;overflow=hidden;rotatable=0;points=[[0,0.5],[1,0.5]];portConstraint=eastwest;rounded=0;shadow=0;html=0;fontFamily=Helvetica;fontSize=12;fontStyle=2;resizable=1;fillColor=#fff2cc;strokeColor=none;fontColor=default;" vertex="1" parent="rS_IYxCSZImI4G8X3djC-38">
          <mxGeometry y="182" width="220" height="26" as="geometry" />
        </mxCell>
        <mxCell id="rS_IYxCSZImI4G8X3djC-45" value="cover folder" style="text;align=left;verticalAlign=top;spacingLeft=4;spacingRight=4;overflow=hidden;rotatable=0;points=[[0,0.5],[1,0.5]];portConstraint=eastwest;rounded=0;shadow=0;html=0;fontFamily=Helvetica;fontSize=12;fontStyle=2;resizable=1;fillColor=#fff2cc;strokeColor=none;strokeWidth=1;fontColor=default;" vertex="1" parent="rS_IYxCSZImI4G8X3djC-38">
          <mxGeometry y="208" width="220" height="26" as="geometry" />
        </mxCell>
        <mxCell id="rS_IYxCSZImI4G8X3djC-46" value="" style="line;html=1;strokeWidth=1;align=center;verticalAlign=top;spacingTop=-1;spacingLeft=3;spacingRight=3;rotatable=0;labelPosition=right;points=[];portConstraint=eastwest;rounded=0;shadow=0;strokeColor=#d6b656;swimlaneFillColor=none;fontFamily=Helvetica;fontSize=12;fontColor=default;fontStyle=2;fillColor=#fff2cc;gradientColor=none;" vertex="1" parent="rS_IYxCSZImI4G8X3djC-38">
          <mxGeometry y="234" width="220" height="2" as="geometry" />
        </mxCell>
        <mxCell id="rS_IYxCSZImI4G8X3djC-47" value="make element" style="text;align=left;verticalAlign=middle;spacingLeft=4;spacingRight=4;overflow=hidden;rotatable=0;points=[[0,0.5],[1,0.5]];portConstraint=eastwest;fontFamily=Helvetica;fontSize=12;fontStyle=2;fillColor=#fff2cc;strokeColor=none;strokeWidth=1;fontColor=default;" vertex="1" parent="rS_IYxCSZImI4G8X3djC-38">
          <mxGeometry y="236" width="220" height="40" as="geometry" />
        </mxCell>
        <mxCell id="rS_IYxCSZImI4G8X3djC-52" value="Unified Modeling Language (UML) representation of the JavaScript objects used to create comic book cards" style="whiteSpace=wrap;html=1;fontSize=15;labelBackgroundColor=none;fontStyle=1;fontColor=#4D4D4D;" vertex="1" parent="WIyWlLk6GJQsqaUBKTNV-1">
          <mxGeometry x="150" y="40" width="500" height="60" as="geometry" />
        </mxCell>
      </root>
    </mxGraphModel>
  </diagram>
</mxfile>
